<?xml version="1.0" encoding="utf-8"?>
<!-- Generator: Adobe Illustrator 18.1.1, SVG Export Plug-In . SVG Version: 6.00 Build 0)  -->
<svg version="1.1" id="Layer_1" xmlns="http://www.w3.org/2000/svg" xmlns:xlink="http://www.w3.org/1999/xlink" x="0px" y="0px"
	 width="850.4px" height="850.4px" viewBox="119 -29.4 850.4 850.4" enable-background="new 119 -29.4 850.4 850.4"
	 xml:space="preserve">
<polygon fill="none" stroke="#000000" stroke-miterlimit="10" points="765.3,743 323.1,743 246.6,686.4 161.5,502.1 161.5,133.6 
	232.4,48.6 856,48.6 926.9,133.6 926.9,502.1 841.8,686.4 "/>
<circle fill="none" stroke="#000000" stroke-miterlimit="10" cx="266.4" cy="523.6" r="5.7"/>
<circle fill="none" stroke="#000000" stroke-miterlimit="10" cx="822" cy="523.6" r="5.7"/>
<rect x="289.1" y="317.9" fill="none" stroke="#000000" stroke-miterlimit="10" width="510.2" height="56.7"/>
<circle fill="none" stroke="#000000" stroke-miterlimit="10" cx="303.2" cy="91.1" r="5.7"/>
<circle fill="none" stroke="#000000" stroke-miterlimit="10" cx="303.2" cy="176.1" r="5.7"/>
<circle fill="none" stroke="#000000" stroke-miterlimit="10" cx="785.1" cy="91.1" r="5.7"/>
<circle fill="none" stroke="#000000" stroke-miterlimit="10" cx="785.1" cy="176.1" r="5.7"/>
<circle fill="none" stroke="#000000" stroke-miterlimit="10" cx="776.6" cy="686.4" r="5.7"/>
<circle fill="none" stroke="#000000" stroke-miterlimit="10" cx="884.4" cy="502.1" r="5.7"/>
<circle fill="none" stroke="#000000" stroke-miterlimit="10" cx="884.4" cy="190.3" r="5.7"/>
<circle fill="none" stroke="#000000" stroke-miterlimit="10" cx="204" cy="190.3" r="5.7"/>
<circle fill="none" stroke="#000000" stroke-miterlimit="10" cx="204" cy="502.1" r="5.7"/>
<circle fill="none" stroke="#000000" stroke-miterlimit="10" cx="311.8" cy="686.4" r="5.7"/>
</svg>
